<svg width="28" height="28" viewBox="0 0 28 28" fill="none" xmlns="http://www.w3.org/2000/svg">
<path d="M4 14.1688C4 16.9593 5.11328 19.4816 6.90039 21.3188C7.02734 21.4479 7.16406 21.4479 7.27148 21.3088L7.71094 20.8024C7.82812 20.6733 7.81836 20.5541 7.70117 20.425C6.1582 18.8064 5.19141 16.5919 5.19141 14.1688C5.19141 9.28302 9.17578 5.22145 14 5.22145C18.8242 5.22145 22.8086 9.28302 22.8086 14.1688C22.8086 16.5919 21.8418 18.8064 20.2988 20.425C20.1816 20.5541 20.1719 20.6733 20.2891 20.8024L20.7285 21.3088C20.8359 21.4479 20.9727 21.4479 21.0996 21.3188C22.8867 19.4916 24 16.9593 24 14.1688C24 8.59782 19.5176 4 14 4C8.48242 4 4 8.59782 4 14.1688ZM6.8418 14.1688C6.8418 16.0953 7.57422 17.8332 8.78516 19.144C8.91211 19.283 9.04883 19.2731 9.16602 19.144L9.60547 18.6475C9.73242 18.5184 9.71289 18.3992 9.5957 18.2602C8.62891 17.1678 8.04297 15.7378 8.04297 14.1688C8.04297 10.852 10.7285 8.11122 14 8.11122C17.2715 8.11122 19.957 10.852 19.957 14.1688C19.957 15.7378 19.3711 17.1678 18.4043 18.2502C18.2871 18.3893 18.2676 18.5084 18.3945 18.6375L18.8437 19.144C18.9512 19.2731 19.0977 19.283 19.2148 19.144C20.416 17.8332 21.1582 16.0953 21.1582 14.1688C21.1582 10.1768 17.9453 6.88977 14 6.88977C10.0547 6.88977 6.8418 10.1768 6.8418 14.1688ZM9.68359 14.1688C9.68359 15.2214 10.0449 16.1847 10.6699 16.9494C10.7773 17.0884 10.9141 17.0884 11.041 16.9494L11.5 16.4628C11.6172 16.3436 11.6074 16.2145 11.5195 16.0755C11.1191 15.5492 10.8848 14.8739 10.8848 14.1688C10.8848 12.4409 12.3008 11.001 14 11.001C15.6992 11.001 17.1152 12.4409 17.1152 14.1688C17.1152 14.8739 16.8809 15.5492 16.4805 16.0755C16.3828 16.2145 16.373 16.3436 16.5 16.4727L16.959 16.9494C17.0762 17.0884 17.2227 17.0884 17.3301 16.9494C17.9551 16.1847 18.3164 15.2214 18.3164 14.1688C18.3164 11.7656 16.373 9.77954 14 9.77954C11.627 9.77954 9.68359 11.7656 9.68359 14.1688ZM7.68164 23.1857C7.38867 23.5233 7.56445 24 8.02344 24H19.957C20.416 24 20.5918 23.5134 20.3086 23.1857L14.4102 16.4032C14.1855 16.145 13.7949 16.145 13.5703 16.4032L7.68164 23.1857Z" fill="white" fill-opacity="0.6"/>
</svg>
