<svg width="28" height="28" viewBox="0 0 28 28" fill="none" xmlns="http://www.w3.org/2000/svg">
<path d="M12.7664 21C13.4464 21 14.0218 20.4653 14.0218 19.4761V14.3431C14.1177 14.7174 14.3879 15.0382 14.8587 15.3234L23.7421 20.6703C24.0908 20.8842 24.3872 21 24.7446 21C25.4246 21 26 20.4653 26 19.4761V8.52387C26 7.53469 25.4246 7 24.7446 7C24.3872 7 24.0995 7.11585 23.7421 7.32973L14.8587 12.6766C14.3792 12.9618 14.1177 13.2826 14.0218 13.6569V8.52387C14.0218 7.53469 13.4464 7 12.7664 7C12.409 7 12.1213 7.11585 11.7639 7.32973L2.88049 12.6766C2.26153 13.0509 2 13.4876 2 13.9955C2 14.5124 2.26153 14.9491 2.88049 15.3234L11.7639 20.6703C12.1126 20.8842 12.409 21 12.7664 21Z" fill="white"/>
</svg>
