<svg width="28" height="28" viewBox="0 0 28 28" fill="none" xmlns="http://www.w3.org/2000/svg">
<path d="M3.2549 21C3.6122 21 3.9085 20.8842 4.25708 20.6703L13.1373 15.3234C13.6166 15.0382 13.878 14.7174 13.9739 14.3431V19.4761C13.9739 20.4653 14.549 21 15.2288 21C15.5861 21 15.8824 20.8842 16.2309 20.6703L25.1198 15.3234C25.7298 14.9491 26 14.5124 26 13.9955C26 13.4876 25.7298 13.0509 25.1198 12.6766L16.2309 7.32973C15.8824 7.11585 15.5861 7 15.2288 7C14.549 7 13.9739 7.53469 13.9739 8.52387V13.6569C13.878 13.2826 13.6166 12.9618 13.1373 12.6766L4.25708 7.32973C3.89978 7.11585 3.6122 7 3.2549 7C2.57516 7 2 7.53469 2 8.52387V19.4761C2 20.4653 2.57516 21 3.2549 21Z" fill="white"/>
</svg>
