<svg width="45" height="45" viewBox="0 0 45 45" fill="none" xmlns="http://www.w3.org/2000/svg">
<g clip-path="url(#clip0_115_316)">
<path d="M22.489 44.9999C25.5611 44.9999 28.4531 44.412 31.1649 43.2362C33.8769 42.0602 36.2691 40.436 38.3415 38.3636C40.4141 36.291 42.0383 33.8988 43.2141 31.187C44.3901 28.475 44.9781 25.583 44.9781 22.511C44.9781 19.439 44.3901 16.547 43.2141 13.8351C42.0383 11.1232 40.4141 8.73095 38.3415 6.65844C36.2691 4.58593 33.8732 2.96172 31.1538 1.78582C28.4346 0.609921 25.539 0.0219727 22.467 0.0219727C19.3949 0.0219727 16.503 0.609921 13.7911 1.78582C11.0792 2.96172 8.69061 4.58593 6.62544 6.65844C4.56027 8.73095 2.93974 11.1232 1.76384 13.8351C0.587948 16.547 0 19.439 0 22.511C0 25.583 0.587948 28.475 1.76384 31.187C2.93974 33.8988 4.56395 36.291 6.63646 38.3636C8.70899 40.436 11.1012 42.0602 13.8131 43.2362C16.525 44.412 19.417 44.9999 22.489 44.9999Z" fill="#F35242"/>
<path d="M10 24.5363V24.3369C10 23.0929 10.3618 22.009 11.0854 21.0851C11.809 20.1612 12.7758 19.3973 13.9858 18.7935C15.1957 18.1896 16.5391 17.7397 18.016 17.4438C19.4929 17.1479 20.9846 17 22.4911 17C23.9976 17 25.4923 17.1479 26.9751 17.4438C28.4579 17.7397 29.8043 18.1896 31.0142 18.7935C32.2242 19.3973 33.191 20.1612 33.9146 21.0851C34.6382 22.009 35 23.0929 35 24.3369V24.5363C35 24.9952 34.9229 25.4119 34.7686 25.7862C34.6145 26.1606 34.3861 26.4565 34.0835 26.6739C33.781 26.8913 33.3926 27 32.9181 27C32.4081 27 31.8209 26.9668 31.1565 26.9004C30.4922 26.834 29.6441 26.6377 28.612 26.3116C28.0189 26.1304 27.5889 25.8738 27.322 25.5417C27.0551 25.2095 26.9158 24.7113 26.9039 24.0471L26.8683 22.8877C26.8683 22.6824 26.7438 22.5314 26.4946 22.4348C26.1862 22.3382 25.685 22.2385 24.9911 22.1359C24.2971 22.0332 23.4638 21.9819 22.4911 21.9819C21.5184 21.9819 20.685 22.0332 19.9911 22.1359C19.2971 22.2385 18.8019 22.3382 18.5053 22.4348C18.2443 22.5314 18.1139 22.6824 18.1139 22.8877L18.0961 24.0471C18.0842 24.7113 17.9419 25.2095 17.669 25.5417C17.3962 25.8738 16.9632 26.1304 16.3701 26.3116C15.3381 26.6377 14.4929 26.834 13.8345 26.9004C13.1761 26.9668 12.586 27 12.064 27C11.6014 27 11.2189 26.8913 10.9164 26.6739C10.6139 26.4565 10.3855 26.1606 10.2313 25.7862C10.0771 25.4119 10 24.9952 10 24.5363Z" fill="white"/>
</g>
<defs>
<clipPath id="clip0_115_316">
<rect width="44.9781" height="45" fill="white"/>
</clipPath>
</defs>
</svg>
