<svg width="45" height="45" viewBox="0 0 45 45" fill="none" xmlns="http://www.w3.org/2000/svg">
<g clip-path="url(#clip0_115_311)">
<path d="M22.489 44.9999C25.5611 44.9999 28.4531 44.412 31.1649 43.2362C33.8769 42.0602 36.2691 40.436 38.3415 38.3636C40.4141 36.291 42.0383 33.8988 43.2141 31.187C44.3901 28.475 44.9781 25.583 44.9781 22.511C44.9781 19.439 44.3901 16.547 43.2141 13.8351C42.0383 11.1232 40.4141 8.73095 38.3415 6.65844C36.2691 4.58593 33.8732 2.96172 31.1538 1.78582C28.4346 0.609921 25.539 0.0219727 22.467 0.0219727C19.3949 0.0219727 16.503 0.609921 13.7911 1.78582C11.0792 2.96172 8.69061 4.58593 6.62544 6.65844C4.56027 8.73095 2.93974 11.1232 1.76384 13.8351C0.587948 16.547 0 19.439 0 22.511C0 25.583 0.587948 28.475 1.76384 31.187C2.93974 33.8988 4.56395 36.291 6.63646 38.3636C8.70899 40.436 11.1012 42.0602 13.8131 43.2362C16.525 44.412 19.417 44.9999 22.489 44.9999Z" fill="#57D76A"/>
<path d="M17.6885 27.2915C16.5204 26.1206 15.4854 24.8911 14.5834 23.603C13.6813 22.3149 13 21.0334 12.5392 19.7583C12.0785 18.4833 11.913 17.2733 12.0428 16.1284C12.1726 14.9835 12.6787 13.9621 13.5613 13.0644C13.5872 13.0384 13.6229 13.0026 13.6684 12.9571C13.7138 12.9115 13.7689 12.8758 13.8338 12.8497C14.2751 12.5115 14.7034 12.2708 15.1187 12.1276C15.534 11.9845 15.9202 11.9618 16.2771 12.0593C16.634 12.1569 16.9552 12.4009 17.2407 12.7912L19.7132 16.3041C20.1285 16.8895 20.3005 17.3937 20.2291 17.8165C20.1577 18.2394 19.8949 18.6915 19.4406 19.1729L18.6619 19.9925C18.5321 20.1357 18.477 20.2853 18.4964 20.4414C18.5159 20.5975 18.5581 20.7342 18.623 20.8512C18.8176 21.1895 19.1421 21.6384 19.5964 22.1978C20.0506 22.7573 20.5503 23.3102 21.0954 23.8566C21.6665 24.4291 22.2213 24.9366 22.7599 25.379C23.2985 25.8213 23.7431 26.1465 24.0936 26.3546C24.2363 26.4327 24.3952 26.475 24.5704 26.4815C24.7457 26.4881 24.8917 26.4393 25.0084 26.3353L25.7873 25.5351C26.2415 25.0797 26.6827 24.8163 27.1109 24.7447C27.5393 24.6732 28.052 24.8456 28.6489 25.2619C29.1941 25.6392 29.6744 25.9775 30.0897 26.2767C30.505 26.5759 30.8846 26.8459 31.2286 27.0865C31.5724 27.3272 31.9 27.5582 32.2116 27.7793C32.7957 28.2218 33.0552 28.7487 32.9902 29.3601C32.9254 29.9716 32.6658 30.5376 32.2116 31.0581C32.1597 31.1232 32.1078 31.1882 32.0559 31.2532C32.0039 31.3182 31.9455 31.3833 31.8806 31.4484C30.998 32.3331 29.9857 32.8372 28.8437 32.9608C27.7016 33.0845 26.4946 32.9153 25.2227 32.4534C23.9507 31.9915 22.6723 31.3085 21.3874 30.4043C20.1025 29.5 18.8696 28.4625 17.6885 27.2915Z" fill="white"/>
</g>
<defs>
<clipPath id="clip0_115_311">
<rect width="44.9781" height="45" fill="white"/>
</clipPath>
</defs>
</svg>
